<mxfile host="www.draw.io" modified="2020-03-07T18:02:00.447Z" agent="Mozilla/5.0 (Windows NT 10.0; Win64; x64) AppleWebKit/537.36 (KHTML, like Gecko) Chrome/80.0.3987.132 Safari/537.36" etag="NjHzYKZdOS9Ubp2KG8gn" version="12.8.1" type="github">
  <diagram name="Page-1" id="2c0d36ab-eaac-3732-788b-9136903baeff">
    <mxGraphModel dx="1038" dy="588" grid="1" gridSize="10" guides="1" tooltips="1" connect="1" arrows="1" fold="1" page="1" pageScale="1.5" pageWidth="1169" pageHeight="827" background="#ffffff" math="0" shadow="0">
      <root>
        <mxCell id="0" />
        <mxCell id="1" parent="0" />
        <mxCell id="lwYFYkAfcCVs-2Vd27mR-119" value="" style="edgeStyle=orthogonalEdgeStyle;rounded=0;orthogonalLoop=1;jettySize=auto;html=1;fontSize=13;" edge="1" parent="1" source="4" target="48">
          <mxGeometry relative="1" as="geometry" />
        </mxCell>
        <mxCell id="4" value="Detailed Info" style="rounded=1;fillColor=#23445D;gradientColor=none;strokeColor=none;fontColor=#FFFFFF;fontStyle=1;fontFamily=Tahoma;fontSize=14" parent="1" vertex="1">
          <mxGeometry x="889.9999999999998" y="335.5" width="190" height="80" as="geometry" />
        </mxCell>
        <mxCell id="lwYFYkAfcCVs-2Vd27mR-117" value="" style="edgeStyle=orthogonalEdgeStyle;rounded=0;orthogonalLoop=1;jettySize=auto;html=1;fontSize=13;" edge="1" parent="1" source="10" target="41">
          <mxGeometry relative="1" as="geometry" />
        </mxCell>
        <mxCell id="10" value="Add Service" style="rounded=1;fillColor=#23445D;gradientColor=none;strokeColor=none;fontColor=#FFFFFF;fontStyle=1;fontFamily=Tahoma;fontSize=14" parent="1" vertex="1">
          <mxGeometry x="687" y="335.5" width="190" height="80" as="geometry" />
        </mxCell>
        <mxCell id="lwYFYkAfcCVs-2Vd27mR-113" value="" style="edgeStyle=orthogonalEdgeStyle;rounded=0;orthogonalLoop=1;jettySize=auto;html=1;fontSize=13;" edge="1" parent="1" source="12" target="29">
          <mxGeometry relative="1" as="geometry" />
        </mxCell>
        <mxCell id="12" value="Search" style="rounded=1;fillColor=#23445D;gradientColor=none;strokeColor=none;fontColor=#FFFFFF;fontStyle=1;fontFamily=Tahoma;fontSize=14" parent="1" vertex="1">
          <mxGeometry x="479.9999999999999" y="335.5" width="190" height="80" as="geometry" />
        </mxCell>
        <mxCell id="13" value="List of Services" style="rounded=1;fillColor=#23445D;gradientColor=none;strokeColor=none;fontColor=#FFFFFF;fontStyle=1;fontFamily=Tahoma;fontSize=14" parent="1" vertex="1">
          <mxGeometry x="270" y="335.5" width="190" height="80" as="geometry" />
        </mxCell>
        <mxCell id="lwYFYkAfcCVs-2Vd27mR-111" value="" style="edgeStyle=orthogonalEdgeStyle;rounded=0;orthogonalLoop=1;jettySize=auto;html=1;fontSize=13;" edge="1" parent="1" source="16" target="17">
          <mxGeometry relative="1" as="geometry" />
        </mxCell>
        <mxCell id="16" value="Manipulation&#xa;with table" style="rounded=1;fillColor=#23445D;gradientColor=none;strokeColor=none;fontColor=#FFFFFF;fontStyle=1;fontFamily=Tahoma;fontSize=14" parent="1" vertex="1">
          <mxGeometry x="300" y="440" width="130" height="60" as="geometry" />
        </mxCell>
        <mxCell id="lwYFYkAfcCVs-2Vd27mR-110" style="edgeStyle=orthogonalEdgeStyle;rounded=0;orthogonalLoop=1;jettySize=auto;html=1;entryX=0.5;entryY=0;entryDx=0;entryDy=0;fontSize=13;" edge="1" parent="1" source="17" target="31">
          <mxGeometry relative="1" as="geometry" />
        </mxCell>
        <mxCell id="17" value="Sort&#xa;Refresh Data" style="rounded=1;fillColor=#23445D;gradientColor=none;strokeColor=none;fontColor=#FFFFFF;fontStyle=1;fontFamily=Tahoma;fontSize=14" parent="1" vertex="1">
          <mxGeometry x="300" y="520" width="130" height="60" as="geometry" />
        </mxCell>
        <mxCell id="lwYFYkAfcCVs-2Vd27mR-114" value="" style="edgeStyle=orthogonalEdgeStyle;rounded=0;orthogonalLoop=1;jettySize=auto;html=1;fontSize=13;" edge="1" parent="1" source="29" target="30">
          <mxGeometry relative="1" as="geometry" />
        </mxCell>
        <mxCell id="29" value="FiltersÂ " style="rounded=1;fillColor=#23445D;gradientColor=none;strokeColor=none;fontColor=#FFFFFF;fontStyle=1;fontFamily=Tahoma;fontSize=14" parent="1" vertex="1">
          <mxGeometry x="510" y="440" width="130" height="60" as="geometry" />
        </mxCell>
        <mxCell id="30" value="Filtering by all&#xa;fields &amp; categories" style="rounded=1;fillColor=#23445D;gradientColor=none;strokeColor=none;fontColor=#FFFFFF;fontStyle=1;fontFamily=Tahoma;fontSize=13;" parent="1" vertex="1">
          <mxGeometry x="510" y="520" width="130" height="60" as="geometry" />
        </mxCell>
        <mxCell id="31" value="Sort By All &#xa;fields" style="rounded=1;fillColor=#23445D;gradientColor=none;strokeColor=none;fontColor=#FFFFFF;fontStyle=1;fontFamily=Tahoma;fontSize=14" parent="1" vertex="1">
          <mxGeometry x="300" y="600" width="130" height="60" as="geometry" />
        </mxCell>
        <mxCell id="lwYFYkAfcCVs-2Vd27mR-118" value="" style="edgeStyle=orthogonalEdgeStyle;rounded=0;orthogonalLoop=1;jettySize=auto;html=1;fontSize=13;" edge="1" parent="1" source="41" target="42">
          <mxGeometry relative="1" as="geometry" />
        </mxCell>
        <mxCell id="41" value="Fill in form" style="rounded=1;fillColor=#23445D;gradientColor=none;strokeColor=none;fontColor=#FFFFFF;fontStyle=1;fontFamily=Tahoma;fontSize=14" parent="1" vertex="1">
          <mxGeometry x="717" y="440" width="130" height="60" as="geometry" />
        </mxCell>
        <mxCell id="42" value="Subject&lt;br style=&quot;font-size: 10px;&quot;&gt;Contact info&lt;br style=&quot;font-size: 10px;&quot;&gt;Description&lt;br style=&quot;font-size: 10px;&quot;&gt;Price&lt;br style=&quot;font-size: 10px;&quot;&gt;Dates" style="rounded=1;fillColor=#23445D;gradientColor=none;strokeColor=none;fontColor=#FFFFFF;fontStyle=1;fontFamily=Tahoma;fontSize=10;html=1;" parent="1" vertex="1">
          <mxGeometry x="717" y="520" width="130" height="60" as="geometry" />
        </mxCell>
        <mxCell id="lwYFYkAfcCVs-2Vd27mR-120" value="" style="edgeStyle=orthogonalEdgeStyle;rounded=0;orthogonalLoop=1;jettySize=auto;html=1;fontSize=13;" edge="1" parent="1" source="48" target="49">
          <mxGeometry relative="1" as="geometry" />
        </mxCell>
        <mxCell id="48" value="Contact Info" style="rounded=1;fillColor=#23445D;gradientColor=none;strokeColor=none;fontColor=#FFFFFF;fontStyle=1;fontFamily=Tahoma;fontSize=14" parent="1" vertex="1">
          <mxGeometry x="920" y="440.00000000000006" width="130" height="60" as="geometry" />
        </mxCell>
        <mxCell id="49" value="Print Contact Info" style="rounded=1;fillColor=#23445D;gradientColor=none;strokeColor=none;fontColor=#FFFFFF;fontStyle=1;fontFamily=Tahoma;fontSize=14;whiteSpace=wrap;" parent="1" vertex="1">
          <mxGeometry x="920" y="520" width="130" height="60" as="geometry" />
        </mxCell>
        <mxCell id="lwYFYkAfcCVs-2Vd27mR-109" value="" style="edgeStyle=orthogonalEdgeStyle;rounded=0;orthogonalLoop=1;jettySize=auto;html=1;fontSize=13;" edge="1" parent="1" source="72M78kPSqFK6V5F_6qrr-124" target="72M78kPSqFK6V5F_6qrr-126">
          <mxGeometry relative="1" as="geometry" />
        </mxCell>
        <mxCell id="72M78kPSqFK6V5F_6qrr-124" value="Home Page" style="rounded=1;fillColor=#23445D;gradientColor=none;strokeColor=none;fontColor=#FFFFFF;fontStyle=1;fontFamily=Tahoma;fontSize=14" parent="1" vertex="1">
          <mxGeometry x="60" y="335.5" width="190" height="80" as="geometry" />
        </mxCell>
        <mxCell id="lwYFYkAfcCVs-2Vd27mR-112" value="" style="edgeStyle=orthogonalEdgeStyle;rounded=0;orthogonalLoop=1;jettySize=auto;html=1;fontSize=13;" edge="1" parent="1" source="72M78kPSqFK6V5F_6qrr-126" target="72M78kPSqFK6V5F_6qrr-127">
          <mxGeometry relative="1" as="geometry" />
        </mxCell>
        <mxCell id="72M78kPSqFK6V5F_6qrr-126" value="Menu Buttons" style="rounded=1;fillColor=#23445D;gradientColor=none;strokeColor=none;fontColor=#FFFFFF;fontStyle=1;fontFamily=Tahoma;fontSize=14" parent="1" vertex="1">
          <mxGeometry x="90" y="440" width="130" height="60" as="geometry" />
        </mxCell>
        <mxCell id="72M78kPSqFK6V5F_6qrr-127" value="See services&#xa;Add service" style="rounded=1;fillColor=#23445D;gradientColor=none;strokeColor=none;fontColor=#FFFFFF;fontStyle=1;fontFamily=Tahoma;fontSize=14" parent="1" vertex="1">
          <mxGeometry x="90" y="520" width="130" height="60" as="geometry" />
        </mxCell>
        <mxCell id="lwYFYkAfcCVs-2Vd27mR-107" value="" style="endArrow=classic;html=1;fontSize=13;entryX=0.5;entryY=0;entryDx=0;entryDy=0;" edge="1" parent="1" source="13" target="16">
          <mxGeometry width="50" height="50" relative="1" as="geometry">
            <mxPoint x="320" y="480" as="sourcePoint" />
            <mxPoint x="370" y="430" as="targetPoint" />
          </mxGeometry>
        </mxCell>
        <mxCell id="lwYFYkAfcCVs-2Vd27mR-121" value="User Story" style="text;html=1;resizable=0;autosize=1;align=center;verticalAlign=middle;points=[];fillColor=none;strokeColor=none;rounded=0;fontSize=45;fontStyle=5;fontFamily=Tahoma;fontColor=#023E66;labelBackgroundColor=#ffffff;" vertex="1" parent="1">
          <mxGeometry x="442" y="230" width="250" height="60" as="geometry" />
        </mxCell>
      </root>
    </mxGraphModel>
  </diagram>
</mxfile>
